#!OML:ASF F:\VICON\USERDATA\INSTALL\rory3\rory3.ASF
:FULLY-SPECIFIED
:DEGREES
121
root -1.71386 18.0844 -33.9897 3.94663 -1.01216 -6.5167
lowerback 5.74173 1.89852 2.67724
upperback -0.237185 2.87501 4.47496
thorax -3.56877 1.4231 2.87759
lowerneck -14.0289 -5.71919 -15.0772
upperneck 25.3393 -6.44339 8.10097
head 11.3342 -3.43195 4.61123
rclavicle 1.70955e-014 -4.77083e-015
rhumerus -36.2717 -18.3159 -72.0981
rradius 22.6751
rwrist -7.72595
rhand -11.7106 17.6043
rfingers 7.12502
rthumb 14.3359 -11.8807
lclavicle 1.70955e-014 -4.77083e-015
lhumerus -41.1553 19.2635 74.9494
lradius 21.2899
lwrist -16.0992
lhand 0.436085 31.551
lfingers 7.12502
lthumb 26.008 59.791
rfemur 4.30102 0.994798 30.9671
rtibia 15.627
rfoot -20.3946 -7.33697
rtoes 25.653
lfemur -36.5569 -2.78369 -8.49322
ltibia 31.1581
lfoot -17.2052 1.79011
ltoes -8.53843
122
root -1.70656 18.0792 -33.9211 4.23294 -1.48859 -6.59522
lowerback 5.65631 2.10122 2.72815
upperback -0.250986 3.14387 4.45532
thorax -3.53993 1.55584 2.80766
lowerneck -14.5527 -5.75249 -14.9126
upperneck 25.5024 -6.42068 7.97005
head 11.4865 -3.41282 4.53422
rclavicle -1.46604e-014 1.35174e-014
rhumerus -36.2953 -18.459 -72.0956
rradius 22.8451
rwrist -7.75314
rhand -11.8522 17.2092
rfingers 7.12502
rthumb 14.1995 -12.2855
lclavicle -1.46604e-014 1.35174e-014
lhumerus -41.24 19.8351 74.4855
lradius 20.9288
lwrist -16.6337
lhand 0.45763 31.1539
lfingers 7.12502
lthumb 26.0286 59.3909
rfemur 4.68454 1.32903 30.9621
rtibia 14.7191
rfoot -19.7682 -7.37056
rtoes 24.3408
lfemur -36.796 -2.83452 -8.15693
ltibia 29.9669
lfoot -17.3901 2.66833
ltoes -8.68183
123
root -1.71013 18.0719 -33.8281 4.03621 -0.419373 -6.43028
lowerback 5.61563 1.79365 2.52452
upperback -0.159812 2.71449 4.48904
thorax -3.41991 1.34713 2.99668
lowerneck -14.6648 -5.78454 -14.9777
upperneck 25.4541 -6.44534 8.03074
head 11.4987 -3.41953 4.56171
rclavicle 2.49475e-014 3.97569e-014
rhumerus -36.281 -18.5587 -72.0082
rradius 22.848
rwrist -7.75516
rhand -11.8407 17.2256
rfingers 7.12502
rthumb 14.2105 -12.2683
lclavicle 2.49475e-014 3.97569e-014
lhumerus -41.4214 20.0122 74.31
lradius 20.8988
lwrist -16.7332
lhand 0.632565 31.3302
lfingers 7.12502
lthumb 26.1961 59.5425
rfemur 5.57002 0.991507 31.0735
rtibia 13.8764
rfoot -19.8121 -8.31357
rtoes 24.3538
lfemur -36.8286 -3.56174 -8.31182
ltibia 28.8595
lfoot -17.8343 2.72392
ltoes -8.72239
124
root -1.70475 18.0687 -33.7571 4.13017 -0.611443 -6.48487
lowerback 5.63484 1.90976 2.4663
upperback -0.192568 2.87032 4.53521
thorax -3.47567 1.42614 3.063
lowerneck -14.594 -5.76825 -15.1104
upperneck 25.368 -6.42566 8.14667
head 11.4584 -3.4095 4.6302
rclavicle 1.11319e-014 1.11319e-014
rhumerus -36.257 -18.7354 -71.8265
rradius 22.627
rwrist -7.66887
rhand -11.8593 17.5491
rfingers 7.12502
rthumb 14.1926 -11.946
lclavicle 1.11319e-014 1.11319e-014
lhumerus -41.6395 20.0388 74.1963
lradius 20.8564
lwrist -16.6614
lhand 0.734606 31.6705
lfingers 7.12502
lthumb 26.2938 59.8683
rfemur 6.0568 1.25694 31.1429
rtibia 13.2127
rfoot -19.7002 -8.5455
rtoes 23.8836
lfemur -36.9941 -3.58704 -8.11444
ltibia 27.9686
lfoot -18.5145 3.47688
ltoes -9.17861
125
root -1.6969 18.0635 -33.6785 4.26595 -0.793834 -6.51671
lowerback 5.56448 2.04495 2.46223
upperback -0.120408 3.04286 4.54394
thorax -3.36839 1.51256 3.06279
lowerneck -14.9915 -5.78075 -15.0229
upperneck 25.399 -6.37861 8.06043
head 11.5366 -3.38146 4.5854
rclavicle 5.76476e-015 -5.56597e-015
rhumerus -36.0592 -19.0147 -71.7151
rradius 22.4449
rwrist -7.51724
rhand -11.9496 17.5863
rfingers 7.12502
rthumb 14.1056 -11.9149
lclavicle 5.76476e-015 -5.56597e-015
lhumerus -41.5732 20.3347 73.9651
lradius 20.591
lwrist -16.8476
lhand 0.754607 31.4916
lfingers 7.12502
lthumb 26.313 59.6865
rfemur 6.7118 1.48959 31.1692
rtibia 12.1881
rfoot -19.3224 -8.71532
rtoes 22.816
lfemur -37.276 -3.53516 -7.97894
ltibia 27.238
lfoot -18.8574 4.07969
ltoes -9.04722
126
root -1.68591 18.0574 -33.5975 4.34668 -0.999505 -6.55314
lowerback 5.60423 2.14093 2.49379
upperback -0.45978 3.19503 4.55007
thorax -3.74764 1.58685 3.03183
lowerneck -13.7924 -5.5498 -15.0262
upperneck 25.12 -6.21226 8.00746
head 11.1669 -3.33211 4.59996
rclavicle -4.47266e-015 -2.38542e-015
rhumerus -36.8255 -18.7579 -71.4584
rradius 22.5048
rwrist -7.46778
rhand -12.0327 17.1368
rfingers 7.12502
rthumb 14.0255 -12.37
lclavicle -4.47266e-015 -2.38542e-015
lhumerus -42.496 20.564 73.2728
lradius 20.3652
lwrist -17.1813
lhand 0.925696 31.4053
lfingers 7.12502
lthumb 26.4767 59.5756
rfemur 7.46566 1.68176 31.1572
rtibia 11.1007
rfoot -19.1027 -8.68685
rtoes 23.5746
lfemur -37.5178 -3.39098 -7.91023
ltibia 26.6545
lfoot -18.801 4.69045
ltoes -9.04663
127
root -1.68894 18.047 -33.498 4.18786 -0.345311 -6.54984
lowerback 5.73083 1.91811 2.49711
upperback -0.0517879 2.883 4.59195
thorax -3.38569 1.43256 3.10258
lowerneck -15.4315 -5.83362 -14.9174
upperneck 25.4041 -6.31762 7.73032
head 11.6043 -3.37293 4.44439
rclavicle -4.07509e-015 -2.22639e-014
rhumerus -35.7776 -19.3203 -71.5419
rradius 22.0027
rwrist -6.88134
rhand -12.091 17.0291
rfingers 7.12502
rthumb 13.9694 -12.4815
lclavicle -4.07509e-015 -2.22639e-014
lhumerus -41.9054 21.6857 72.8614
lradius 19.9251
lwrist -17.9541
lhand 0.97809 31.267
lfingers 7.12502
lthumb 26.5269 59.4298
rfemur 8.5591 1.00782 31.2877
rtibia 9.95563
rfoot -19.4465 -8.66889
rtoes 25.7371
lfemur -37.6539 -3.49628 -8.05644
ltibia 26.1742
lfoot -18.5522 4.69809
ltoes -9.59053
128
root -1.68384 18.0317 -33.4003 4.15131 -0.0929141 -6.62178
lowerback 5.72288 1.89568 2.53483
upperback -0.188857 2.86348 4.59642
thorax -3.52117 1.42205 3.08629
lowerneck -14.6003 -5.82702 -14.8055
upperneck 25.0441 -6.43539 7.65494
head 11.3098 -3.43364 4.38089
rclavicle 1.5704e-014 -2.3059e-014
rhumerus -36.1213 -19.7392 -71.1585
rradius 21.5793
rwrist -6.24123
rhand -11.8795 17.9312
rfingers 7.12502
rthumb 14.1731 -11.5654
lclavicle 1.5704e-014 -2.3059e-014
lhumerus -42.422 21.7313 72.4196
lradius 19.7501
lwrist -18.2314
lhand 0.796064 31.048
lfingers 7.12502
lthumb 26.3526 59.237
rfemur 9.58786 0.761181 31.4068
rtibia 8.67876
rfoot -18.5558 -8.87097
rtoes 23.4879
lfemur -37.8672 -3.60679 -7.97528
ltibia 25.8069
lfoot -18.5492 4.91659
ltoes -9.45276
129
root -1.67 18.0166 -33.3198 4.29184 -0.528773 -6.76119
lowerback 5.61811 2.12543 2.59568
upperback -0.180291 3.16894 4.62985
thorax -3.46348 1.57365 3.06393
lowerneck -14.401 -5.82191 -15.0338
upperneck 24.9109 -6.49131 8.00973
head 11.2481 -3.44106 4.54515
rclavicle 3.08116e-015 -2.3059e-014
rhumerus -36.0727 -19.5412 -71.2921
rradius 22.1069
rwrist -5.91996
rhand -11.5624 16.4771
rfingers 7.12502
rthumb 14.4787 -12.9978
lclavicle 3.08116e-015 -2.3059e-014
lhumerus -42.475 21.7279 72.4075
lradius 19.6419
lwrist -18.2997
lhand 0.677644 30.9781
lfingers 7.12502
lthumb 26.2393 59.184
rfemur 10.5594 1.2401 31.4632
rtibia 7.07804
rfoot -18.3954 -8.89437
rtoes 24.7378
lfemur -38.162 -3.54076 -7.65281
ltibia 25.5438
lfoot -18.6492 5.62113
ltoes -9.39473
130
root -1.65939 18.0055 -33.2352 4.43597 -0.514819 -6.78349
lowerback 5.41608 2.16609 2.53918
upperback -0.148728 3.20836 4.67961
thorax -3.32459 1.59567 3.15192
lowerneck -14.288 -5.78515 -15.1951
upperneck 24.7307 -6.45134 8.17624
head 11.1643 -3.41757 4.6386
rclavicle 7.65321e-015 -3.18055e-014
rhumerus -35.8508 -19.1791 -71.5051
rradius 22.2324
rwrist -6.11538
rhand -11.6062 15.9518
rfingers 7.12502
rthumb 14.4365 -13.5261
lclavicle 7.65321e-015 -3.18055e-014
lhumerus -42.4941 21.6435 72.5622
lradius 19.699
lwrist -18.1645
lhand 0.951572 31.5696
lfingers 7.12502
lthumb 26.5015 59.7362
rfemur 11.5639 1.27045 31.4467
rtibia 5.4057
rfoot -17.3283 -8.97393
rtoes 23.0682
lfemur -38.5302 -3.54099 -7.59026
ltibia 25.3377
lfoot -18.5349 6.0256
ltoes -10.4486
131
root -1.64828 17.9952 -33.1407 4.41597 -0.308382 -6.74489
lowerback 5.4549 2.11169 2.49875
upperback -0.0962387 3.133 4.6955
thorax -3.29216 1.55905 3.19688
lowerneck -14.394 -5.80272 -15.2437
upperneck 24.679 -6.43937 8.16142
head 11.1661 -3.4148 4.64001
rclavicle 8.64713e-015 5.56597e-015
rhumerus -35.6168 -18.9471 -71.6597
rradius 22.1448
rwrist -6.25569
rhand -11.627 16.0538
rfingers 7.12502
rthumb 14.4164 -13.4256
lclavicle 8.64713e-015 5.56597e-015
lhumerus -42.5506 21.4254 72.7622
lradius 19.9535
lwrist -17.7582
lhand 1.14681 32.3522
lfingers 7.12502
lthumb 26.6884 60.4905
rfemur 12.614 1.07636 31.3869
rtibia 4.0356
rfoot -16.7965 -9.08329
rtoes 21.6104
lfemur -38.7164 -3.60017 -7.67006
ltibia 25.1577
lfoot -18.525 6.07301
ltoes -13.2847
132
root -1.6371 17.9784 -33.0418 4.2348 -0.124993 -6.77333
lowerback 5.67878 2.06845 2.58652
upperback 0.258092 3.07269 4.70233
thorax -3.04404 1.52761 3.15754
lowerneck -15.588 -6.02273 -15.2057
upperneck 24.9069 -6.56096 8.09672
head 11.5031 -3.45229 4.579
rclavicle -6.06293e-015 1.19271e-014
rhumerus -34.8312 -19.0689 -71.9262
rradius 22.0151
rwrist -6.21379
rhand -11.2907 16.868
rfingers 7.12502
rthumb 14.7404 -12.5879
lclavicle -6.06293e-015 1.19271e-014
lhumerus -41.9738 21.7563 72.9107
lradius 19.998
lwrist -17.6796
lhand 1.07306 32.6576
lfingers 7.12502
lthumb 26.6178 60.8066
rfemur 14.7422 0.880288 31.3886
rtibia 0.912957
rfoot -15.5845 -9.14022
rtoes 20.8982
lfemur -38.7103 -3.74403 -7.64288
ltibia 25.0111
lfoot -18.4512 5.99234
ltoes -9.82883
133
root -1.62457 17.966 -32.9465 4.50391 -0.745146 -6.78129
lowerback 5.44667 2.38603 2.53942
upperback 0.167742 3.48279 4.61808
thorax -3.02025 1.7324 3.06948
lowerneck -14.9614 -6.06104 -14.8625
upperneck 24.4676 -6.72541 7.86235
head 11.2113 -3.52591 4.40436
rclavicle 1.04362e-014 -1.59028e-014
rhumerus -34.9727 -19.2237 -71.9115
rradius 21.918
rwrist -6.20668
rhand -11.452 16.4272
rfingers 7.12502
rthumb 14.585 -13.04
lclavicle 1.04362e-014 -1.59028e-014
lhumerus -42.0917 21.7342 72.6743
lradius 19.9069
lwrist -17.881
lhand 1.23966 32.7095
lfingers 7.12502
lthumb 26.7772 60.8342
rfemur 15.3138 1.55611 31.3096
rtibia -3.18055e-014
rfoot -15.4231 -9.14444
rtoes 22.0599
lfemur -38.9328 -3.66359 -7.36888
ltibia 24.8542
lfoot -18.418 6.44693
ltoes -8.23438
